<?xml version="1.0" encoding="utf-8"?>
<!-- Generator: Adobe Illustrator 25.1.0, SVG Export Plug-In . SVG Version: 6.00 Build 0)  -->
<svg version="1.1" id="Layer_1" xmlns="http://www.w3.org/2000/svg" xmlns:xlink="http://www.w3.org/1999/xlink" x="0px" y="0px"
	 viewBox="0 0 595.3 841.9" style="enable-background:new 0 0 595.3 841.9;" xml:space="preserve">
<style type="text/css">
	.st0{fill:#231F20;}
</style>
<image style="display:none;overflow:visible;opacity:0.28;" width="2000" height="833" xlink:href="74943F8E03AE9E81.png"  transform="matrix(0.29 0 0 0.3782 5.8218 287.2843)">
</image>
<path class="st0" d="M307.2,312.8l-9.3,20.5c0,0-11.9-1.8-9.4-6.1C288.1,327.1,290.1,316.1,307.2,312.8z"/>
<path class="st0" d="M305.7,473.4c0,0-7.9,25.7-15.4,34.2c-5.2,6.2-13.6,14.6-24.3,16.2c-11,1.1-22.3,1.2-36.7-3.4
	c-14.1-4.5-23.2-7.7-33.1-14.1c-10-6.4-10-6.4-10-6.4s-2.1,14.8,8.2,33c4.3,7.1,16.9,23.7,16.9,23.7l15.1,17.5
	c0,0,10.7,11.4,12.8,12.8s8.4,8.9,8.9,21.6c-0.9,5.3-2.7,15-15.9,19.4c7.3,0.2,15.9,0.4,24.4-5.7c5.9-0.7,12.2-1.2,15.8-4.6
	c-4.8-0.4-9.3-0.2-10.5-2.9c5.5-2.5,11.8-5.5,13.9-9.8c-4.5,1.6-12.3,3.4-12.8,0.7c5.2-3,10-6.2,12.3-13.2
	c-3.9,2.9-8.2,6.8-12.3,4.3c-0.9-0.4-1.8-0.9-5.2-8.6c-3.4-7.7-22.1-21.2-22.1-21.2s-19.8-14.6-25.8-36.7c8.2,8,15.7,14.6,24.8,17.1
	c2.7-4.3,6.4-15.1,26.2-14.6c8,2.3,14.4,2.1,18.2,13c0.7,3.6,3.8,14-15.1,21.2c9.3,7.3,9.3,7.3,9.3,7.3s13.5-12,21.2-22.6
	c8.4-15.3,11.6-19.1,13.5-37.2C308.4,496.1,308.1,478.8,305.7,473.4z"/>
<path class="st0" d="M241.6,551.5l16.4,10.2c0,0,20.7-3.2,9.3-18.2c-3.4-2.1-3.4-2.1-3.4-2.1S243.7,534.7,241.6,551.5z"/>
<path class="st0" d="M239.7,443.1c0,0,5.1,4.6,17.8,7.8c4.3,1.7,10.9,4,12.5,9.5c-0.2,3-2.4,8.6-10.6,9.5c-1.8-2-9.8-9.8-12.3-13.9
	C244.2,452.2,241.7,448.2,239.7,443.1z"/>
<path class="st0" d="M284.2,361.4c0,0,2.6-8.7,3.7-8.8c-1.1-0.7-7.8-5.7-17.4-3.3c-2.3,0.8-12.5,3.9-15.9,13.8
	c-0.5,1.9-3.9,11.4,4.7,22.4c2.1,2.5,8.4,10.8,19.9,11.3c2.8-0.6,6-1.3,6.6-2.2c-0.8-0.8-5.6-8.3-4.8-15.9c0.1-3.1,1.1-9,1.1-9
	s-2.9,5-8,4.5c-5.1-0.6-8.1-6.1-7.3-9s2.4-9.4,11.3-8C280.8,358.3,282.3,358.8,284.2,361.4z"/>
<path class="st0" d="M261,323.5c0,0,5-19,8.8-24.9c-1.5-2.1-11.2-25.3-3.7-37.6c1.2,0.8,17.3,13.5,28.7,8.3
	c4.5-1.7,16.1-6.8,15-15.1c-0.5-1.2-2.1-4.7-11.2,0c0.6-1.2,5.1-5.7,5.7-16.3c1.6-1.2,5.9-6.7,12.2,1.5c1.2,2.4,5.3,8.6-1.7,24.1
	c-2.9,5.6-7.6,15.4-22.2,27.2C287.5,295.4,261.2,318.4,261,323.5z"/>
<path class="st0" d="M259,315.4"/>
<path class="st0" d="M267.4,165.4c0,0,44.6,9.6,62.4,69.7c0.9,4.3,6.2,29.6-20,71.9c-3.7,0.5-25.1,3.6-28.3,15.1
	c-3.2,11.6,13.4,13.7,13.4,13.7l-4.3,9.3c0,0-30.7-23-46.3,25.8c1.2-6.6,6.1-32.1,30.8-55.5c19.4-17.6,37.1-30.9,44.4-47.8
	c2.7-5.3,9.4-16.1,4.5-30.6c-2-4.1-8.7-20.1-19.6-10.2c-0.4-2.5,0.2-25.1-10.9-36.7c-0.2,3.2-1.6,7.7-5.3,8.6
	C287.9,196.1,286.1,182.7,267.4,165.4z"/>
<path class="st0" d="M242.5,384.1c0,0-0.5,10.8-4.3,15.9c-1.2,0.1-12.1-1.4-18.5-7c-0.8,1.4-8.2,17.2,2,29.9
	c4.4,5.2,13.5,13.8,33.1,20.2c4.4,1.7,19,8.4,19,8.4s7.1,3.3,4.8,15.4c-2.4,12.1-14.5,9.3-14.5,9.3s6.1,23.3,1.4,38.9
	c3-1.1,18.8-8.1,28.2-29.7c3-7.5,11.5-25.2-5.8-40c-1.2-1.1-1.6-2.1-16-5.8c-1.9-0.2-16.2-2.1-22.9-18.3c-0.4-3.3-1.5-18.6,3.1-24.3
	C250.7,395.4,245.3,393.2,242.5,384.1z"/>
<path class="st0" d="M256.6,407.8c0,0,4.9,14.6,30.1,19.8c-0.6,0.9-7,6.2-21,0c-14-6.2-9.5-20.4-9.5-20.4"/>
<path class="st0" d="M260.2,395.2c0,0,23.3,27.2,46.8,0.8c1,2.4,9.5,17.5-5,25.3c-3.2,0.7-15.6,4.6-35-11.9
	C263.6,405.1,261.2,402.5,260.2,395.2z"/>
<path class="st0" d="M289,436.1c0,0,6.8-0.4,19.6-9.5c2.9,1.3,24.5,11.8,38.3,44.8c2.5,6.8,9.3,19.7,10.1,55.4
	c-1.9-8.4-11-56.4-48.8-62C307.9,462.4,311.9,444.4,289,436.1z"/>
<path class="st0" d="M383.4,580.1c-5-5.3-17.8-21.1-32.6-22.3c0.8-2,5.8-22.9,1.4-35.4c-3.3-8.8-6.5-20.1-26.1-33.3
	c0,0,11.9,12.7,13.3,24.6c-1,0.5-7.5,2.7-11.9,8.6c3.2-0.2,12.2-1,14,0c-0.1,1.4-0.7,9.1-0.7,9.1s-11.6-0.4-20.2,9.5
	c2.7-0.6,15.4-3.8,17.5,0.7c-0.7,1.5-5,7.5-5,7.5s-13.3-0.6-25.7,11.6c2.5-0.4,14-3.1,19,0.8c-0.1,1.9,0.8,19.7,17.3,29.9
	c5.6,3.2,17.5,9.5,35.5,9.5c10-0.5,16.5,0.4,32.8-5.9C409.5,594.5,395.7,594.7,383.4,580.1z M358.5,587.8c-12.5-0.2-11.8-8-11.8-8
	s-1.3-7.8,8.3-8.7c9.6-0.8,13.2,5.4,13.2,5.4S371,588.1,358.5,587.8z"/>
<path class="st0" d="M320.9,575.1c0,0-0.2,17.3-16.6,33c-1-0.4-3.7-0.2-3.9-9.3c-1.3,1.2-5.9,4.3-4.4,19.1c-0.7,0-4.2,1.7-7.4-6.5
	c-0.8,2.5-3.4,8.8,0,15.7c-1.2-0.1-3.4,1.1-6.7-5.1c-0.5,1-2.6,8.3,5.7,15.8c-0.2,1.9-0.1,8.1,1.4,9c2.3-3.2,30.2-35.9,33-34.3
	c1.9,1.7,13.3,12,45.4,10.7c7-0.1,49.3-2.3,74.1-22.2c-3.8,1.1-38,14.9-74.6,7.6s-44-26.1-46.2-34.1"/>
<path class="st0" d="M151.4,634c0,0,0.3,25.7,67.4,60.4c11,5.7,56.1,26.9,101.6,29.4c7-0.5,14.1-4.3,16.6-11.6
	c-1.4-0.2-13.2,2.3-11.8-6.4s12.3-7,15-2.3c3.2-2,8.4-7.8,10.2-21.2c-0.7-1.1-2.7-8.2-37.4-12.7c-2.1-0.7-15.5-2.7-22.5-14.1
	c-0.5,2.1-11.2,10.2,17.8,26.7c3.3,2,9.5,3.9,8.4,12.1c-1.1,8.2-16,7-16,7s-12.5-2.9-8-12.1c-0.7-0.4-12.7,2.5-9.6,11.6
	c-2.1-0.7-22.7-9.2-8.7-23.5c-3.9,0.4-10.3-1.1-16.8,7.5c-2.4-2.1-21.5-17.6,5.1-47.9c-3.9,0.4-36.5,5.3-41.9,38.7
	c-1.6,1.1-7,4.8-14.8-2.5c0.4-5,3-19.1,15.3-29.8c-7.8,3.9-23.7,7.8-26.9,25.1c-0.5-1.1-14.1-9.6,1.2-26.9
	c-3.7,0.4-12.7,1.1-24.4,13.2c-0.2-1.6-2.9-10.3,4.5-17.6c-2.1,0.5-7.7,0.7-13.4,8.2C160.7,645,157.7,646.5,151.4,634z"/>
<path class="st0" d="M222.3,627c0,0-8,1.5-25.2-18.3c-2.9-2.1-11.8-12.2-25.2-2c-8.9,7.8-10.3,9-10.3,9s-10.5,1.3-10.7,7
	c0.5,1.7,1,5.2,7.5,6.8c3.4-0.2,8.1,0.5,8.7-7.6c0.2-1.5-0.2-4.4,3.3-6c2.7-2.1,8.6-6.9,14.4-6.4C186.4,610.5,205.4,630.7,222.3,627
	z"/>
</svg>
