<svg id="Layer_1" data-name="Layer 1" xmlns="http://www.w3.org/2000/svg" xmlns:xlink="http://www.w3.org/1999/xlink" viewBox="0 0 526.04 425.47"><defs><style>.cls-1{fill:none;}.cls-2{clip-path:url(#clip-path);}.cls-3{clip-path:url(#clip-path-2);}</style><clipPath id="clip-path" transform="translate(-34.96 -212.59)"><rect class="cls-1" x="34.96" y="212.59" width="526.04" height="425.47"/></clipPath><clipPath id="clip-path-2" transform="translate(-34.96 -212.59)"><rect class="cls-1" x="29.72" y="208.51" width="536.52" height="430.13"/></clipPath></defs><title>tohu</title><g class="cls-2"><g class="cls-3"><path d="M112.09,604.5s18,.54,43.25,1.25h41.39l3.51-5.51,3.43,5.51h7l3.5-5.51,3.44,5.51h7.71l3.5-5.51,3.44,5.51H462.08l21.9-.54-19.17-43c-16.68,19.2-47.12,18.28-166.91,18.28h-.06c-123.88,0-149-.45-167.85-16.35Z" transform="translate(-34.96 -212.59)"/><polygon points="393.23 212.64 392.56 213.89 476.57 390.27 476.57 390.27 486.9 411.95 487.93 411.46 477.84 390.27 393.23 212.64"/><path d="M323.48,538.8l0-.06a44.74,44.74,0,0,1-8.09-6c0,1.36,0,2.71,0,4.06a47.77,47.77,0,0,0,6.69,4.67C322.54,540.62,323,539.74,323.48,538.8Z" transform="translate(-34.96 -212.59)"/><path d="M380.71,429.08c-9,23-73.66,148.16-73.66,148.16l2.85-.06h.18c21.84-41.7,71.16-139.77,71.75-140.94.13-.24,12.21-23.81,8.3-51.14h-5.85C385.54,389.51,388.66,408.76,380.71,429.08Z" transform="translate(-34.96 -212.59)"/><path d="M320.14,545.32l.1-.2.29-.56.46-.89.16-.32a51.63,51.63,0,0,1-5.71-3.82c0,1.28,0,2.53,0,3.78,1.39,1,2.84,1.87,4.32,2.71C319.9,545.8,320,545.57,320.14,545.32Z" transform="translate(-34.96 -212.59)"/><path d="M325.77,534.31l.09-.17a38.3,38.3,0,0,1-8.73-6.93l-1.74-1.89c0,1.49,0,3,0,4.44a42.1,42.1,0,0,0,9.07,7.08Z" transform="translate(-34.96 -212.59)"/><path d="M329.3,527.39c.41-.82.83-1.64,1.26-2.48a28,28,0,0,1-5.9-4.75c-3.42-3.66-6.51-7.22-9.32-10.71,0,1.6,0,3.2,0,4.78,2.21,2.63,4.56,5.29,7.1,8a31.08,31.08,0,0,0,6.73,5.39Z" transform="translate(-34.96 -212.59)"/><path d="M334.05,518l1.13-2.24.05-.11a18.69,18.69,0,0,1-3-2.59,152.54,152.54,0,0,1-16.9-21.31c0,1.84,0,3.67,0,5.5A165.66,165.66,0,0,0,330,515.17a21,21,0,0,0,3.89,3.23C333.93,518.28,334,518.16,334.05,518Z" transform="translate(-34.96 -212.59)"/><path d="M332.9,520.3a23.8,23.8,0,0,1-4.48-3.67A174.82,174.82,0,0,1,315.31,501c0,1.69,0,3.37,0,5.05,3.21,4.13,6.81,8.35,10.88,12.7a26.39,26.39,0,0,0,5.31,4.31Z" transform="translate(-34.96 -212.59)"/><path d="M326.92,532.06l1.23-2.42.05-.09a33.49,33.49,0,0,1-7.31-5.87c-1.95-2.08-3.77-4.14-5.52-6.17,0,1.55,0,3.1,0,4.63,1.07,1.2,2.16,2.4,3.3,3.61a36.54,36.54,0,0,0,8.14,6.5Z" transform="translate(-34.96 -212.59)"/><path d="M382.5,436.59c-.58,1.16-49.6,98.64-71.56,140.57h0l2,0,1.61,0,2.1,0,1.39,0,2.56-.06.82,0c5.68-.12,11.73-.26,18-.42l74-145.91-5-8.63,9.74-.75,1.61-3.16-4.89-8.47,9.56-.74,2-4-4.79-8.3,9.37-.72,5.47-10.78H393.14C396.67,409.58,382.63,436.35,382.5,436.59Z" transform="translate(-34.96 -212.59)"/><polygon points="501.59 390.27 405.73 189.01 405.06 190.26 500.33 390.27 515.49 422.09 516.52 421.6 501.59 390.27 501.59 390.27"/><polygon points="397.39 204.76 396.73 206.01 484.5 390.27 484.5 390.27 496.43 415.33 497.46 414.84 485.75 390.27 397.39 204.76"/><path d="M345.63,576.35,440.88,385.1h-3.09l-97.1,191.38Z" transform="translate(-34.96 -212.59)"/><polygon points="489.71 390.27 399.48 200.82 398.81 202.08 488.45 390.27 501.19 417.02 502.22 416.53 489.71 390.27 489.71 390.27"/><polygon points="395.31 208.7 394.65 209.96 480.54 390.27 491.67 413.64 492.69 413.15 481.8 390.27 395.31 208.7"/><polygon points="401.56 196.88 400.9 198.14 492.41 390.27 492.41 390.27 505.96 418.71 506.99 418.22 493.67 390.27 401.56 196.88"/><polygon points="497.63 390.27 403.64 192.95 402.98 194.2 496.37 390.27 496.37 390.27 510.72 420.4 511.75 419.91 497.63 390.27 497.63 390.27"/><polygon points="525.02 425.47 526.04 424.98 409.89 181.13 409.23 182.39 525.02 425.47"/><polygon points="520.25 423.78 521.28 423.29 407.81 185.07 407.15 186.32 520.25 423.78"/><path d="M337.54,511.13l0-.11a13.19,13.19,0,0,1-1.64-1.45,135.53,135.53,0,0,1-20.69-27.94c0,2.05,0,4.11,0,6.16a146.11,146.11,0,0,0,18.46,23.86,15.93,15.93,0,0,0,2.46,2.12Z" transform="translate(-34.96 -212.59)"/><path d="M317.4,550.62l.44-.82.11-.2.25-.5c.13-.24.28-.55.47-.92a2,2,0,0,0,.13-.25c-1.13-.64-2.25-1.32-3.33-2,0,1.2,0,2.4,0,3.57C316.12,549.86,316.75,550.25,317.4,550.62Z" transform="translate(-34.96 -212.59)"/><path d="M285.66,577.18l1.82,0S224,452.11,215,429.08c-8-20.32-5.05-39.57-3.78-44H205.6c-3.91,27.33,8.18,50.9,8.3,51.14C214.49,437.41,263.81,535.48,285.66,577.18Z" transform="translate(-34.96 -212.59)"/><path d="M213.76,408.1c0,.51.07,1,.13,1.54,0,.22,0,.44.07.66q.06.66.15,1.32c0,.26.06.52.1.77l.18,1.26c0,.28.09.56.14.84s.14.82.22,1.23.11.59.17.89.17.81.26,1.23l.21.91c.1.42.21.83.32,1.26s.15.6.23.9.25.88.38,1.32c.09.29.17.58.26.87.15.49.31,1,.48,1.46.08.25.16.5.25.75.26.74.53,1.49.82,2.23.17.43.35.89.55,1.36,0,.13.11.27.16.41l.49,1.15.17.42c.22.51.45,1,.68,1.58a.3.3,0,0,0,0,.08c.27.62.55,1.27.85,1.93,0,.06.05.11.07.17.27.61.55,1.24.85,1.88,0,.1.09.2.13.29l1,2.12v0q1.08,2.34,2.29,4.93v0c19.58-25,52.28,3,31.36,19.55,14.43-23.42-27.26-30.78-21.07,1.89l0,0c2.61,5.33,5.35,10.89,8.13,16.49l0,.09c2.78,5.6,5.61,11.26,8.38,16.78,26.29-28.89,27.35-49.19,27.35-73.44,0-48-45.31-22.56-16.69-3-27.38-10-8.31-44.78,17.55-32-.07-16.12-.2-27.48-.42-30.68a122,122,0,0,0-15.12-51.7,104.44,104.44,0,0,0-7.17-10.76l-11.6,24.31c38,25.33,8.87,59.08-1.94,40.12,13.25,14.41,27.55-24.26-5.32-24.92l-21.49,45-1.29,2.91a41.5,41.5,0,0,0-1.06,4c-.34,2-.75,4.23-1.08,6.76q-.07.74-.15,1.5a.34.34,0,0,1,0,.1c0,.48-.07,1-.11,1.47a.91.91,0,0,1,0,.17c0,.5,0,1-.07,1.51a1.15,1.15,0,0,0,0,.19c0,.52,0,1.05,0,1.59a.92.92,0,0,0,0,.16c0,1.78,0,3.67.16,5.64Z" transform="translate(-34.96 -212.59)"/><polygon points="245.46 339 244.4 339.78 245.6 342.74 245.46 339"/><path d="M275.52,544.56l.29.56c0,.07.07.14.1.2l.36.7q2.06-1.17,4-2.5c0-1.24,0-2.49,0-3.75a50.88,50.88,0,0,1-5.39,3.58c.06.1.11.21.17.32Z" transform="translate(-34.96 -212.59)"/><path d="M277.85,549.1l.26.5.1.2.44.82c.54-.3,1.07-.63,1.6-1,0-1.17,0-2.36,0-3.56-1,.64-2,1.25-3,1.83l.13.25Z" transform="translate(-34.96 -212.59)"/><polygon points="5.79 423.78 118.79 186.55 118.13 185.3 4.76 423.29 5.79 423.78"/><path d="M273.93,541.45A47,47,0,0,0,280.3,537c0-1.34,0-2.68,0-4a43.88,43.88,0,0,1-7.78,5.74l0,.06C273.05,539.74,273.51,540.62,273.93,541.45Z" transform="translate(-34.96 -212.59)"/><polygon points="1.03 425.47 116.71 182.61 116.04 181.36 0 424.98 1.03 425.47"/><path d="M284.81,577.16c-21.9-42-70.78-139.55-71.58-140.57-.13-.16-13.92-27.25-11.7-51.49h-42.7l97.39,191.41C266.54,576.77,276.36,577,284.81,577.16Z" transform="translate(-34.96 -212.59)"/><path d="M254.93,576.48,157.68,385.36l.51-.26h-5l96.92,191.25Z" transform="translate(-34.96 -212.59)"/><path d="M293,577.32h-.46l5.38.1,5.36-.1,6-11.2c0-44.06,0-191.33,0-192.27-.13-16.58-.42-59.38,18.45-98.9l-29.81-62.36-20.62,43.12c5.61,14.1,15.7,54.49,15.7,124.72Z" transform="translate(-34.96 -212.59)"/><path d="M286.51,373.85c0,.94,0,148.25,0,192.3L292,576.46v-196c0-68.75-12.29-103.51-18-118.16l-6,12.68C286.92,314.47,286.63,357.27,286.51,373.85Z" transform="translate(-34.96 -212.59)"/><polygon points="281.35 339.92 280.43 339.64 280.15 342.45 281.35 339.92"/><path d="M315.69,359.62c-.23,3.2-.36,14.63-.43,30.84,26-13.27,45.37,21.8,17.87,31.8,28.62-19.53-16.69-45-16.69,3,0,24.25,1.06,44.55,27.35,73.44,2.77-5.52,5.6-11.18,8.39-16.78a.36.36,0,0,1,0-.09c2.78-5.6,5.53-11.16,8.14-16.49,0,0,0,0,0,0,6.2-32.67-35.49-25.31-21.07-1.89-20.92-16.59,11.78-44.59,31.36-19.55l0,0c.8-1.73,1.57-3.37,2.28-4.93v0l1-2.12c0-.09.08-.19.13-.29l.84-1.88c0-.06,0-.11.07-.17.3-.66.58-1.31.85-1.93a.3.3,0,0,0,0-.08l.68-1.58.18-.42c.17-.4.33-.78.48-1.15.06-.14.11-.28.17-.41.19-.47.38-.93.54-1.36.29-.74.56-1.49.82-2.23.09-.25.17-.5.25-.75.17-.48.33-1,.48-1.46.09-.29.17-.58.26-.87.13-.44.26-.88.38-1.32l.24-.9c.11-.43.21-.84.31-1.26l.21-.91c.09-.42.18-.82.26-1.23s.12-.59.17-.89.15-.82.22-1.23.1-.56.14-.84.12-.84.18-1.26c0-.25.08-.51.11-.77l.15-1.32c0-.22,0-.44.07-.66.05-.52.09-1,.13-1.54,0-.13,0-.26,0-.38.13-2,.17-3.86.15-5.64v-.16c0-.54,0-1.07,0-1.59a1.28,1.28,0,0,1,0-.19c0-.51-.05-1-.08-1.51,0-.05,0-.11,0-.17,0-.5-.07-1-.11-1.47,0,0,0-.07,0-.1,0-.51-.09-1-.14-1.5-.34-2.53-.75-4.77-1.09-6.76a38.21,38.21,0,0,0-1.06-4l-1.29-2.91-21.49-45c-32.87.66-18.57,39.33-5.32,24.92-10.81,19-39.93-14.79-1.93-40.12l-11.61-24.31a115.92,115.92,0,0,0-13.85,24A125.9,125.9,0,0,0,315.69,359.62Z" transform="translate(-34.96 -212.59)"/><path d="M271.57,536.84a41.75,41.75,0,0,0,8.75-6.77c0-1.45,0-2.92,0-4.4l-1.41,1.54a38.57,38.57,0,0,1-8.74,6.93l.09.17C270.73,535.18,271.16,536,271.57,536.84Z" transform="translate(-34.96 -212.59)"/><path d="M262,518l.18.36a21,21,0,0,0,3.89-3.23,163.84,163.84,0,0,0,14.35-17.44c0-1.81,0-3.63,0-5.45a153.47,153.47,0,0,1-16.58,20.82,17.88,17.88,0,0,1-3,2.59l.05.11C261.26,516.55,261.63,517.3,262,518Z" transform="translate(-34.96 -212.59)"/><path d="M269.14,532.06l.09.19a36.32,36.32,0,0,0,8.14-6.5c1-1.09,2-2.18,3-3.26,0-1.53,0-3.07,0-4.61-1.66,1.91-3.38,3.84-5.21,5.8a33.67,33.67,0,0,1-7.3,5.87l0,.09C268.33,530.47,268.73,531.28,269.14,532.06Z" transform="translate(-34.96 -212.59)"/><path d="M266.88,527.62a31.08,31.08,0,0,0,6.73-5.39c2.42-2.59,4.65-5.12,6.77-7.63,0-1.58,0-3.16,0-4.76-2.73,3.37-5.71,6.8-9,10.32a28,28,0,0,1-5.89,4.75l1.25,2.48A1.71,1.71,0,0,1,266.88,527.62Z" transform="translate(-34.96 -212.59)"/><path d="M269.84,518.7c3.94-4.2,7.43-8.3,10.56-12.3,0-1.67,0-3.35,0-5a173.43,173.43,0,0,1-12.79,15.26,23.49,23.49,0,0,1-4.48,3.67c.47.91.93,1.82,1.38,2.71A26.12,26.12,0,0,0,269.84,518.7Z" transform="translate(-34.96 -212.59)"/><path d="M280.47,482.2a135.69,135.69,0,0,1-20.37,27.37,12.51,12.51,0,0,1-1.64,1.45l.05.11,1.34,2.64a15,15,0,0,0,2.46-2.12,147.74,147.74,0,0,0,18.14-23.35C280.46,486.27,280.46,484.23,280.47,482.2Z" transform="translate(-34.96 -212.59)"/><path d="M228.82,562.29a72.16,72.16,0,0,1-8.57,13.2h.06l2.8.09h0a76.32,76.32,0,0,0,7.72-12.27A79.51,79.51,0,0,0,235.11,553l-1.48-2.79A77.62,77.62,0,0,1,228.82,562.29Z" transform="translate(-34.96 -212.59)"/><path d="M246.56,574.66l-.86,1.58h.45l1.26,0Z" transform="translate(-34.96 -212.59)"/><path d="M377.31,521.37c-.26,11.93,2,22.9,6.7,32.27a48.13,48.13,0,0,0,19.52,20.78l.92,0,1.79-.09,2-.1h0A45.17,45.17,0,0,1,386,552.62c-5.17-10.27-7.27-22.57-6.22-36Z" transform="translate(-34.96 -212.59)"/><path d="M348.25,576.29l1.71,0-.85-1.58Z" transform="translate(-34.96 -212.59)"/><path d="M187.43,574.18l2,.1,2.06.1.62,0a48,48,0,0,0,19.51-20.77c4.72-9.37,7-20.34,6.71-32.27l-2.52-4.75c1,13.43-1,25.73-6.22,36A45.13,45.13,0,0,1,187.43,574.18Z" transform="translate(-34.96 -212.59)"/><path d="M363.38,547.69a76.35,76.35,0,0,0,5.28,13.69,69.33,69.33,0,0,0,9.33,14l2.88-.1H381a67.13,67.13,0,0,1-10.26-14.95A75,75,0,0,1,365,544.73Z" transform="translate(-34.96 -212.59)"/><polygon points="141.05 228.62 57.18 404.7 58.2 405.19 141.71 229.87 141.05 228.62"/><path d="M366.38,542a73.79,73.79,0,0,0,6.11,17.41,64.1,64.1,0,0,0,11.18,15.77l.77,0,2.26-.08a62,62,0,0,1-12.18-16.68,72.78,72.78,0,0,1-6.47-19.56Z" transform="translate(-34.96 -212.59)"/><path d="M369.6,535.94a71.3,71.3,0,0,0,6.73,21.57A59.09,59.09,0,0,0,389.57,575h.05l3.28-.13h0a56.21,56.21,0,0,1-14.56-18.38,70.34,70.34,0,0,1-6.91-24Z" transform="translate(-34.96 -212.59)"/><path d="M435.65,501.1l-22.24-46.59c-46.58,71.3-22.28,128.2,24.9,114.46,1.1-.41,2.16-.84,3.18-1.26l.64-.28q1.23-.52,2.37-1.08l.55-.25c.9-.44,1.78-.88,2.61-1.32l.19-.1c.75-.41,1.46-.81,2.14-1.22.19-.1.37-.21.55-.32.62-.37,1.21-.74,1.78-1.1l.29-.19c.65-.42,1.26-.84,1.83-1.25l.38-.27c.45-.32.87-.64,1.27-.94l.4-.31,1.34-1.08c.37-.33.71-.63,1-.93l.29-.27.61-.57L460,556l.56-.55.12-.12.56-.58h0l-18.42-38.58c-27.41,1.19-32.8,34.51-8.41,34.14l1.07-.13C409.92,560.59,398,515.38,435.65,501.1Z" transform="translate(-34.96 -212.59)"/><path d="M373.19,529.15a69.4,69.4,0,0,0,7,26.43,53.72,53.72,0,0,0,15.9,19.17l3.78-.17a50.62,50.62,0,0,1-17.64-20,68.36,68.36,0,0,1-6.92-29.37Z" transform="translate(-34.96 -212.59)"/><polygon points="143.13 232.56 61.94 403.01 62.97 403.5 143.79 233.81 143.13 232.56"/><polygon points="126.46 201.05 23.82 416.53 24.85 417.02 127.12 202.3 126.46 201.05"/><polygon points="138.97 224.68 52.41 406.39 53.44 406.88 139.63 225.93 138.97 224.68"/><polygon points="124.38 197.11 19.06 418.22 20.09 418.71 125.04 198.37 124.38 197.11"/><polygon points="122.29 193.17 14.29 419.91 15.32 420.4 122.96 194.43 122.29 193.17"/><polygon points="128.54 204.99 28.59 414.84 29.61 415.33 129.21 206.24 128.54 204.99"/><polygon points="130.63 208.93 33.35 413.15 34.38 413.64 131.29 210.18 130.63 208.93"/><polygon points="136.88 220.74 47.65 408.08 48.67 408.57 137.54 221.99 136.88 220.74"/><polygon points="134.8 216.8 42.88 409.77 43.91 410.26 135.46 218.06 134.8 216.8"/><polygon points="132.71 212.86 38.12 411.46 39.14 411.95 133.38 214.12 132.71 212.86"/><path d="M217.3,556.49a56.29,56.29,0,0,1-14.55,18.38l3.35.13a59.06,59.06,0,0,0,13.23-17.49,71.3,71.3,0,0,0,6.73-21.57l-1.84-3.5A70.13,70.13,0,0,1,217.3,556.49Z" transform="translate(-34.96 -212.59)"/><path d="M187.9,463.68c-1.76-3-3.63-6.08-5.65-9.17L160,501.1c37.7,14.28,25.74,59.49.15,49.06l1.08.13c24.39.37,19-32.95-8.41-34.14l-18.4,38.53h0c.17.17.36.38.59.6,0,0,0,0,0,0l.66.66a2.73,2.73,0,0,0,.25.23l.62.6.3.27c.32.3.67.61,1,.94l1.36,1.09.39.3,1.33,1,.31.23c.6.42,1.23.85,1.9,1.28l.2.13c.61.4,1.27.8,2,1.21l.38.23c1.55.9,3.26,1.82,5.15,2.73l.35.16c.88.42,1.8.83,2.76,1.24l.29.12c1.07.46,2.19.9,3.36,1.34,42.12,12,65.85-32.35,36.86-92.92Z" transform="translate(-34.96 -212.59)"/><path d="M213.46,554.55a50.62,50.62,0,0,1-17.64,20h0l2.09.09,1.69.07a53.69,53.69,0,0,0,15.9-19.16,69.21,69.21,0,0,0,7-26.43l-2.1-4A68.36,68.36,0,0,1,213.46,554.55Z" transform="translate(-34.96 -212.59)"/><polygon points="85.24 394.64 85.24 394.38 74.58 394.38 72.49 398.75 453.32 398.75 451.36 394.64 85.24 394.64"/><polygon points="473.88 390.27 391.14 216.57 390.48 217.83 472.62 390.27 482.14 410.26 483.17 409.77 473.88 390.27 473.88 390.27"/><path d="M221.14,558.43A61.75,61.75,0,0,1,209,575.1l.74,0,2.29.08a64.09,64.09,0,0,0,11.17-15.76A73.81,73.81,0,0,0,229.29,542l-1.67-3.17A72.45,72.45,0,0,1,221.14,558.43Z" transform="translate(-34.96 -212.59)"/><path d="M225,560.36a67.13,67.13,0,0,1-10.26,14.95l3,.1a70.46,70.46,0,0,0,9.33-14,77.08,77.08,0,0,0,5.27-13.69l-1.57-3A75,75,0,0,1,225,560.36Z" transform="translate(-34.96 -212.59)"/><polygon points="465.96 390.27 386.97 224.45 386.31 225.71 464.7 390.27 472.61 406.88 473.64 406.39 465.96 390.27 465.96 390.27"/><polygon points="389.06 220.52 388.39 221.77 468.66 390.27 477.37 408.57 478.4 408.08 469.92 390.27 389.06 220.52"/><polygon points="382.81 232.33 382.14 233.58 456.78 390.27 463.08 403.5 464.11 403.01 458.04 390.27 382.81 232.33"/><polygon points="384.89 228.39 384.23 229.65 460.74 390.27 460.74 390.27 467.84 405.19 468.87 404.7 462 390.27 384.89 228.39"/><path d="M232.66,564.23a77.79,77.79,0,0,1-7.06,11.43h0l2.65.08h.1a82.12,82.12,0,0,0,6.33-10.5c1.16-2.31,2.17-4.7,3.12-7.12l-1.41-2.65A80.73,80.73,0,0,1,232.66,564.23Z" transform="translate(-34.96 -212.59)"/><path d="M355.23,563.1c.61,1.38,1.23,2.75,1.91,4.08a85.31,85.31,0,0,0,5.07,8.72h0l2.66-.08a84.18,84.18,0,0,1-5.73-9.66c-.93-1.84-1.77-3.74-2.57-5.66Z" transform="translate(-34.96 -212.59)"/><path d="M350.24,572.53c.66,1.24,1.34,2.45,2,3.65l1.69,0,.91,0c-1.17-2-2.3-3.94-3.35-6Z" transform="translate(-34.96 -212.59)"/><polygon points="120.21 189.24 9.53 421.6 10.56 422.09 120.87 190.49 120.21 189.24"/><path d="M357.86,558.13c.94,2.42,1.95,4.81,3.12,7.12a82.07,82.07,0,0,0,6.32,10.5l2.77-.09A77,77,0,0,1,363,564.23a78.8,78.8,0,0,1-3.74-8.75Z" transform="translate(-34.96 -212.59)"/><path d="M352.7,567.87c.2.42.39.84.6,1.25,1.21,2.41,2.54,4.69,3.93,6.92l1.84,0,.8,0a90.12,90.12,0,0,1-4.54-7.87c-.46-.91-.86-1.84-1.28-2.77Z" transform="translate(-34.96 -212.59)"/><path d="M236.5,566.16a84.24,84.24,0,0,1-5.74,9.66l.54,0,2.16.06a85.31,85.31,0,0,0,5.07-8.72c.67-1.33,1.3-2.7,1.91-4.08l-1.38-2.6C238.26,562.42,237.43,564.32,236.5,566.16Z" transform="translate(-34.96 -212.59)"/><path d="M360.55,553a79.55,79.55,0,0,0,4.27,10.29,76.32,76.32,0,0,0,7.72,12.27l2.84-.09h0a72.21,72.21,0,0,1-8.56-13.21,77.66,77.66,0,0,1-4.82-12Z" transform="translate(-34.96 -212.59)"/><path d="M240.79,576.11l2.6.07c.7-1.2,1.38-2.41,2-3.65l-1.28-2.43C243.09,572.17,242,574.16,240.79,576.11Z" transform="translate(-34.96 -212.59)"/><path d="M240.34,568.1A90.12,90.12,0,0,1,235.8,576l.81,0,1.83,0c1.38-2.23,2.71-4.51,3.93-6.92.2-.41.39-.83.59-1.25l-1.34-2.54C241.2,566.26,240.79,567.19,240.34,568.1Z" transform="translate(-34.96 -212.59)"/></g></g></svg>